<?xml version="1.0" standalone="no"?>
<!DOCTYPE svg PUBLIC "-//W3C//DTD SVG 20010904//EN"
 "http://www.w3.org/TR/2001/REC-SVG-20010904/DTD/svg10.dtd">
<svg version="1.0" xmlns="http://www.w3.org/2000/svg"
 width="668.000000pt" height="668.000000pt" viewBox="0 0 668.000000 668.000000"
 preserveAspectRatio="xMidYMid meet">
<metadata>
Created by potrace 1.14, written by Peter Selinger 2001-2017
</metadata>
<g transform="translate(0.000000,668.000000) scale(0.100000,-0.100000)"
fill="#000000" stroke="none">
<path d="M2535 6084 c-143 -15 -345 -49 -459 -79 -874 -224 -1634 -939 -1938
-1825 -195 -570 -179 -1238 43 -1807 211 -539 631 -1045 1141 -1377 847 -551
2019 -550 2867 1 266 173 570 452 743 683 162 215 309 467 378 647 l24 62 323
-5 c354 -5 402 -1 498 45 61 30 129 81 109 81 -7 0 -60 -22 -119 -50 l-107
-50 -345 0 c-323 0 -344 1 -341 17 3 14 18 20 68 25 36 4 155 16 265 28 332
36 606 88 794 151 46 16 86 28 87 26 2 -2 -55 -29 -127 -61 -71 -33 -127 -61
-125 -63 6 -7 158 44 231 77 148 66 179 186 68 259 -109 72 -218 91 -513 90
-219 -1 -290 10 -388 61 -85 44 -116 73 -107 99 14 44 65 90 118 106 89 26
203 20 652 -35 88 -11 176 -20 195 -19 31 0 27 3 -30 20 -36 10 -103 24 -150
30 -102 14 -144 33 -55 25 33 -3 66 -2 74 3 27 17 -140 26 -489 26 -190 0
-359 -3 -376 -7 l-31 -7 -6 167 c-15 388 -100 727 -267 1067 -370 754 -1057
1326 -1820 1514 -223 55 -361 72 -615 76 -126 1 -248 1 -270 -1z m541 -70
c589 -69 1125 -335 1564 -774 436 -437 723 -1009 794 -1586 18 -147 30 -356
21 -383 -4 -12 -24 -26 -56 -36 -68 -23 -142 -84 -169 -139 -17 -37 -20 -50
-10 -61 18 -22 90 -61 148 -79 39 -13 52 -22 52 -37 0 -58 -99 -431 -120 -453
-23 -23 -264 -37 -740 -43 -330 -4 -478 -9 -445 -15 28 -5 169 -7 315 -4 l265
5 -240 -24 c-132 -13 -273 -24 -313 -24 -71 -1 -162 15 -162 28 0 3 27 42 60
86 76 102 166 277 223 435 54 151 140 440 133 447 -2 3 -21 -48 -41 -113 -88
-287 -125 -396 -164 -477 -40 -84 -64 -107 -74 -69 -3 10 -5 4 -6 -13 -2 -45
-43 -137 -96 -214 -46 -68 -144 -171 -164 -171 -21 0 -21 21 -2 67 66 158 73
553 16 868 -24 126 -27 136 -129 340 -121 241 -203 376 -332 548 -108 144
-284 340 -375 417 -52 44 -43 33 46 -60 359 -374 601 -741 746 -1134 69 -184
91 -699 39 -891 -38 -139 -56 -173 -111 -201 -54 -27 -110 -31 -128 -10 -6 8
-16 33 -20 57 l-9 44 -1 -36 c-3 -100 -18 -117 -128 -143 l-58 -14 55 -1 c87
-1 169 24 328 98 81 38 163 72 182 75 66 12 825 56 1064 63 l238 6 -7 -24 c-3
-13 -42 -96 -85 -184 -269 -549 -729 -1013 -1265 -1275 -196 -97 -314 -140
-509 -190 -249 -63 -354 -75 -651 -75 -297 0 -402 12 -651 75 -195 50 -313 93
-509 190 -283 138 -578 358 -793 591 -636 691 -880 1568 -675 2434 109 464
383 945 743 1305 597 598 1378 873 2206 774z m2566 -2785 c-92 -36 -105 -97
-37 -176 39 -46 124 -93 167 -93 15 0 28 -5 28 -11 0 -9 -41 -10 -149 -7 -82
3 -153 8 -158 11 -6 4 -7 32 -2 69 4 35 11 98 14 140 8 88 2 84 125 86 l65 1
-53 -20z m-192 -47 c0 -46 -18 -214 -24 -219 -1 -2 -27 4 -56 13 -62 18 -110
61 -110 97 0 43 59 109 120 134 30 12 58 23 63 23 4 0 7 -21 7 -48z m1005
-266 c109 -30 162 -98 139 -178 -9 -29 -19 -36 -79 -61 -98 -39 -286 -91 -440
-121 -181 -34 -689 -95 -701 -84 -2 3 11 59 30 126 19 66 42 158 51 204 9 45
18 92 20 104 4 20 10 21 206 22 112 1 204 4 207 6 2 3 117 3 255 1 196 -2 265
-7 312 -19z m-1167 -488 c-5 -15 -102 -23 -127 -12 -11 5 0 10 34 14 84 11 97
11 93 -2z"/>
<path d="M2187 5436 c-86 -31 -102 -85 -42 -139 63 -55 84 -182 44 -264 -11
-24 -37 -57 -57 -73 -43 -35 -37 -38 18 -10 22 11 42 20 45 20 3 0 5 -24 6
-52 1 -73 32 -271 42 -262 4 4 7 3 8 -2 7 -111 127 -1055 133 -1046 7 12 1
177 -10 257 -2 17 -29 248 -59 515 -31 267 -67 568 -81 670 -14 102 -26 200
-27 219 l-2 34 53 1 c43 1 52 -2 52 -16 0 -10 20 -235 45 -500 54 -586 61
-674 80 -948 20 -289 20 -280 -8 -280 -28 0 -66 26 -76 52 -5 15 -13 6 -42
-50 l-36 -69 43 30 c38 27 47 29 69 19 63 -29 79 -12 95 99 6 39 13 82 16 94
4 18 2 23 -12 22 -16 -2 -20 12 -31 108 -18 163 -17 201 7 225 19 19 19 19 -5
37 -19 15 -26 32 -34 93 -14 107 3 169 48 170 9 1 0 8 -19 16 -19 8 -35 16
-37 17 -1 2 -21 211 -43 466 l-42 463 21 19 c29 27 27 57 -5 69 -36 14 -112
12 -157 -4z m128 -27 c15 -15 -30 -46 -88 -60 -81 -19 -103 8 -45 56 28 24 38
26 77 21 25 -3 50 -11 56 -17z"/>
<path d="M908 5081 c-57 -36 -101 -92 -96 -123 3 -20 10 -23 50 -26 l48 -3
247 -276 c137 -151 252 -282 256 -290 6 -10 -9 -40 -47 -98 -31 -46 -76 -125
-102 -176 -47 -94 -105 -250 -103 -278 0 -9 5 0 11 19 5 19 20 46 32 60 13 14
28 50 35 81 14 65 63 174 93 207 26 26 53 30 44 5 -4 -9 -7 -64 -7 -122 0
-232 87 -429 270 -611 75 -74 181 -160 181 -147 0 3 -46 46 -102 96 -221 197
-300 333 -330 571 -14 114 -2 267 26 334 14 33 18 37 32 26 26 -22 62 -92 78
-150 14 -51 15 -52 15 -19 1 49 10 54 43 22 15 -15 28 -23 28 -19 0 4 -62 75
-137 158 -76 83 -133 149 -127 147 6 -2 190 -199 409 -437 219 -237 400 -430
403 -427 14 13 -55 93 -409 474 -599 644 -733 788 -774 828 l-43 42 33 26 c19
14 37 25 42 24 4 0 40 -41 78 -91 103 -134 257 -315 475 -558 435 -485 664
-754 657 -774 -15 -46 -104 34 -384 345 -170 190 -229 247 -175 171 12 -16 44
-69 72 -118 72 -125 88 -143 198 -233 143 -115 170 -150 163 -208 -2 -16 -1
-16 38 3 19 9 47 14 68 12 l35 -4 -6 35 c-3 20 -6 62 -6 93 l0 57 -33 -6 c-30
-4 -37 0 -71 41 -20 25 -34 46 -30 46 4 0 -16 24 -44 54 -61 65 -132 172 -178
269 -38 82 -44 78 -14 -8 11 -33 19 -63 17 -68 -1 -5 -48 42 -102 104 -55 63
-181 204 -280 314 -285 316 -465 538 -465 575 0 34 -19 60 -43 60 -13 0 -44
-13 -69 -29z m72 -22 c0 -48 -50 -89 -110 -89 -43 0 -39 29 10 74 47 42 100
51 100 15z m929 -1241 c73 -82 129 -148 125 -148 -15 0 -179 148 -221 199 -41
51 -83 120 -83 138 0 9 14 -5 179 -189z"/>
<path d="M2423 5079 c-49 -14 -40 -23 18 -16 51 6 53 5 163 -67 127 -84 186
-120 186 -113 0 4 -145 113 -215 162 -33 22 -35 26 -15 21 44 -9 203 -26 245
-25 37 1 36 2 -22 15 -67 14 -246 35 -297 33 -17 0 -46 -5 -63 -10z"/>
<path d="M3065 4971 c33 -20 66 -54 83 -86 10 -17 11 -13 12 25 l0 46 163 -17
c299 -31 417 -69 417 -136 0 -17 -6 -23 -23 -23 -21 0 -167 -64 -167 -74 0 -2
32 9 70 26 82 34 168 40 216 15 17 -9 43 -34 59 -56 30 -45 43 -54 24 -19 -21
39 -112 129 -173 170 -32 22 -95 54 -140 70 -71 26 -101 31 -241 38 -88 5
-193 16 -233 24 -94 20 -104 20 -67 -3z"/>
<path d="M3442 4840 c-83 -40 -195 -111 -207 -131 -4 -6 16 6 44 26 28 20 101
59 163 86 123 55 131 59 102 59 -11 0 -57 -18 -102 -40z"/>
<path d="M2451 4851 c43 -33 132 -79 279 -144 80 -35 165 -76 190 -91 31 -20
39 -22 25 -8 -20 20 -489 262 -508 262 -5 0 1 -8 14 -19z"/>
<path d="M2860 4840 c14 -11 28 -20 32 -20 15 0 195 -114 263 -165 79 -60 194
-169 308 -293 42 -46 77 -79 77 -73 0 25 -196 230 -310 325 -102 84 -165 128
-268 184 -103 57 -140 72 -102 42z"/>
<path d="M1825 4798 c-38 -19 -74 -54 -75 -70 0 -5 19 7 43 25 23 17 54 40 67
49 35 23 13 21 -35 -4z"/>
<path d="M2000 4812 c0 -23 139 -107 163 -99 7 2 -13 16 -43 32 -30 15 -70 39
-87 53 -18 13 -33 20 -33 14z"/>
<path d="M3467 4655 c-37 -25 -67 -48 -67 -50 0 -6 86 48 120 75 43 34 18 22
-53 -25z"/>
<path d="M3775 4616 c-83 -27 -240 -105 -275 -136 l-25 -22 30 18 c71 43 117
64 233 109 108 41 139 56 115 55 -5 -1 -39 -11 -78 -24z"/>
<path d="M3936 4625 c3 -11 13 -45 21 -75 8 -30 49 -129 90 -220 165 -365 223
-529 223 -632 0 -46 -1 -48 -27 -48 l-28 0 35 -21 c19 -12 50 -35 68 -52 26
-25 32 -27 32 -13 0 42 -119 367 -226 618 -64 150 -127 303 -139 339 -13 36
-30 79 -40 95 -9 16 -13 20 -9 9z"/>
<path d="M1825 4610 c15 -17 112 -60 133 -60 8 0 -136 80 -145 80 -3 0 2 -9
12 -20z"/>
<path d="M2241 4578 c-2 -52 -20 -87 -50 -96 l-26 -7 52 -50 52 -50 -5 40 c-3
22 -9 76 -13 120 -5 44 -9 63 -10 43z"/>
<path d="M1595 4543 c-46 -59 -56 -90 -31 -99 7 -3 40 -4 72 -2 l59 3 -30 17
c-70 41 -71 42 -41 93 15 25 24 45 22 45 -3 0 -26 -26 -51 -57z"/>
<path d="M2570 4533 c177 -101 280 -181 440 -342 165 -166 323 -376 449 -596
67 -117 65 -98 -4 33 -113 216 -250 388 -497 627 -151 146 -266 236 -365 284
-99 49 -113 45 -23 -6z"/>
<path d="M2059 4515 c18 -8 36 -15 40 -15 13 1 -45 29 -59 29 -8 0 0 -6 19
-14z"/>
<path d="M3860 4424 c-77 -36 -233 -135 -226 -142 3 -2 40 19 84 47 44 28 108
63 143 77 60 24 106 54 83 54 -5 0 -43 -16 -84 -36z"/>
<path d="M2595 4326 c17 -14 75 -61 130 -104 289 -230 517 -548 615 -859 42
-133 71 -587 51 -808 -7 -71 -21 -174 -32 -229 -20 -99 -20 -136 0 -74 36 111
46 232 45 548 -1 277 -3 329 -22 434 -42 225 -97 355 -237 551 -185 260 -377
454 -540 544 l-40 22 30 -25z"/>
<path d="M2038 4253 c45 -46 68 -63 71 -53 6 28 23 40 55 40 23 1 5 11 -73 40
-57 22 -107 40 -112 40 -4 0 22 -30 59 -67z"/>
<path d="M3967 4245 c-63 -43 -71 -52 -22 -27 49 25 82 49 75 55 -3 3 -27 -10
-53 -28z"/>
<path d="M2274 4168 c18 -112 25 -192 23 -255 -2 -56 1 -73 11 -73 11 0 13 17
9 78 -6 115 -30 282 -39 282 -5 0 -7 -15 -4 -32z"/>
<path d="M3671 4115 c43 -57 43 -57 52 -31 5 14 26 36 47 48 l37 23 -71 0
c-39 0 -80 4 -90 9 -12 6 -3 -12 25 -49z"/>
<path d="M3776 4070 c21 -35 123 -107 200 -141 62 -27 184 -69 198 -69 6 1
-31 16 -82 35 -114 41 -166 71 -261 147 -65 53 -71 57 -55 28z"/>
<path d="M2481 4026 c-14 -14 -21 -29 -17 -33 9 -9 49 32 44 47 -2 6 -13 1
-27 -14z"/>
<path d="M2575 4040 c3 -5 8 -10 11 -10 2 0 4 5 4 10 0 6 -5 10 -11 10 -5 0
-7 -4 -4 -10z"/>
<path d="M2650 3984 c123 -107 310 -303 359 -378 61 -90 107 -185 133 -271
l18 -60 -6 55 c-16 142 -209 421 -402 582 -100 83 -180 140 -102 72z"/>
<path d="M1565 3985 c11 -68 61 -161 130 -242 67 -78 252 -252 269 -253 5 0
-13 19 -40 42 -148 126 -247 251 -325 411 -35 71 -40 77 -34 42z"/>
<path d="M2200 3993 c0 -6 8 -17 18 -24 16 -13 16 -13 2 6 -8 11 -16 22 -17
24 -2 2 -3 0 -3 -6z"/>
<path d="M3770 3976 c0 -1 20 -34 45 -72 124 -187 240 -484 256 -653 8 -90 33
-286 43 -341 3 -14 3 27 0 92 -7 182 -24 279 -92 523 -4 17 -2 17 19 -5 42
-44 111 -86 198 -119 46 -18 85 -30 87 -28 3 2 -33 19 -78 37 -165 65 -225
125 -325 325 -69 137 -153 270 -153 241z"/>
<path d="M1222 3860 c0 -19 2 -27 5 -17 2 9 2 25 0 35 -3 9 -5 1 -5 -18z"/>
<path d="M3905 3820 c32 -35 112 -89 160 -108 24 -9 26 -9 11 1 -10 6 -60 41
-110 76 -68 47 -83 55 -61 31z"/>
<path d="M1145 3735 c-14 -107 -1 -263 30 -367 31 -106 45 -127 21 -32 -25
101 -38 214 -39 337 0 64 -1 117 -3 117 -1 0 -6 -25 -9 -55z"/>
<path d="M1231 3759 c-1 -24 38 -147 61 -194 28 -56 101 -158 162 -229 53 -61
217 -208 224 -201 2 2 -49 55 -114 117 -188 181 -274 302 -305 433 -15 65 -27
96 -28 74z"/>
<path d="M2729 3703 c-68 -63 -180 -200 -274 -333 -32 -47 -62 -87 -65 -90
-11 -9 -137 -205 -177 -275 -64 -111 -118 -223 -156 -325 -50 -134 -56 -174
-9 -60 105 257 166 371 307 585 104 155 241 331 365 466 45 49 79 89 76 89 -3
0 -33 -26 -67 -57z"/>
<path d="M4120 3687 c0 -3 15 -10 32 -16 18 -6 28 -7 23 -2 -12 10 -55 25 -55
18z"/>
<path d="M2879 3593 l-24 -28 28 24 c25 23 32 31 24 31 -2 0 -14 -12 -28 -27z"/>
<path d="M2769 3488 c-36 -40 -88 -102 -116 -138 -64 -82 -306 -438 -344 -505
-32 -59 -103 -234 -97 -240 2 -3 15 21 27 53 83 205 310 553 516 787 91 104
99 115 88 115 -5 0 -39 -33 -74 -72z"/>
<path d="M3510 3495 c0 -5 5 -17 10 -25 5 -8 10 -10 10 -5 0 6 -5 17 -10 25
-5 8 -10 11 -10 5z"/>
<path d="M2241 3458 c-14 -23 -14 -23 8 -4 22 20 25 26 13 26 -4 0 -13 -10
-21 -22z"/>
<path d="M3534 3439 c2 -9 13 -45 24 -80 46 -149 56 -249 56 -534 0 -250 1
-264 12 -185 33 231 -7 625 -80 780 -9 19 -14 28 -12 19z"/>
<path d="M2185 3384 c-15 -19 -25 -37 -22 -40 2 -2 16 14 31 36 33 50 28 52
-9 4z"/>
<path d="M1947 3342 c-14 -22 -54 -93 -88 -158 -98 -187 -155 -261 -249 -326
-19 -13 -20 -16 -5 -11 11 4 42 21 69 39 28 19 51 32 52 31 1 -1 -4 -31 -12
-67 -23 -107 -15 -121 15 -25 33 109 103 282 140 350 15 28 47 83 71 123 45
78 51 109 7 44z m-193 -396 c-3 -9 -10 -16 -15 -16 -6 0 -5 9 1 21 13 24 24
20 14 -5z"/>
<path d="M2895 3330 l-49 -50 31 0 c18 0 35 -4 38 -10 3 -5 15 -15 26 -21 19
-10 20 -9 9 12 -7 12 -10 43 -8 70 3 27 4 49 4 49 -1 0 -24 -22 -51 -50z"/>
<path d="M2084 3238 c-113 -183 -211 -411 -228 -533 -7 -47 -5 -42 24 50 47
151 107 286 187 423 95 160 107 206 17 60z"/>
<path d="M1212 3255 c3 -5 31 -95 63 -200 93 -304 165 -476 258 -608 32 -46
48 -59 81 -68 60 -16 158 -68 271 -144 133 -89 209 -130 274 -149 58 -17 102
-21 66 -7 -58 24 -94 91 -96 181 -1 42 -2 40 -21 -37 -11 -46 -24 -83 -29 -83
-23 0 -72 60 -90 110 l-20 55 3 -53 c2 -28 0 -52 -4 -52 -4 0 -23 14 -43 32
-53 46 -86 119 -96 208 -7 68 -7 65 -5 -37 4 -127 1 -130 -64 -57 -29 34 -43
59 -64 118 -6 17 -9 15 -24 -15 -9 -18 -28 -39 -42 -46 -30 -15 -43 -5 -106
84 -68 94 -115 204 -209 493 -48 146 -92 270 -98 275 -6 7 -8 7 -5 0z"/>
<path d="M3162 3240 c0 -14 2 -19 5 -12 2 6 2 18 0 25 -3 6 -5 1 -5 -13z"/>
<path d="M2785 3220 c-10 -11 -13 -20 -7 -20 6 0 16 9 22 20 6 11 9 20 7 20
-2 0 -12 -9 -22 -20z"/>
<path d="M3020 3175 c0 -11 61 -35 87 -34 22 0 16 4 -27 19 -63 22 -60 21 -60
15z"/>
<path d="M2810 3155 c0 -24 64 -89 117 -117 51 -28 142 -62 149 -56 2 3 -26
15 -62 28 -54 19 -79 35 -135 92 -39 38 -69 62 -69 53z"/>
<path d="M3169 3090 c-4 -47 -1 -182 6 -300 l12 -215 0 195 c0 107 -2 242 -6
300 l-6 105 -6 -85z"/>
<path d="M1591 3141 c-14 -9 -121 -26 -216 -35 -22 -2 10 -3 70 -1 99 2 185
21 185 39 0 9 -23 7 -39 -3z"/>
<path d="M2604 3003 c-142 -188 -245 -386 -303 -582 -26 -86 -31 -119 -29
-195 l1 -91 7 90 c3 50 17 131 29 180 23 91 69 200 85 200 5 0 10 -179 11
-410 1 -332 5 -425 18 -489 16 -79 60 -238 79 -286 l10 -25 14 26 c45 86 65
402 40 633 -25 234 -19 320 23 334 9 3 11 0 6 -7 -11 -18 -8 -104 6 -153 6
-24 14 -38 16 -31 2 6 0 28 -6 48 -12 45 1 85 30 92 19 5 17 9 -19 47 -58 60
-83 116 -83 187 0 34 2 63 4 66 3 2 27 -19 53 -47 26 -28 120 -100 209 -160
154 -103 235 -174 235 -204 0 -27 -12 -46 -29 -46 -9 0 -54 16 -101 35 -46 19
-86 32 -88 30 -2 -2 31 -24 74 -49 l79 -46 -124 0 c-126 0 -255 -16 -246 -30
3 -4 32 -2 65 5 85 18 265 17 336 -1 62 -17 147 -56 177 -82 44 -39 19 5 -69
119 -53 68 -155 202 -227 297 -71 95 -132 170 -135 168 -2 -3 7 -20 22 -38 14
-18 30 -38 35 -44 5 -6 25 -36 46 -66 60 -91 44 -96 -70 -21 -189 123 -255
210 -254 333 0 36 4 73 8 84 6 17 9 16 26 -10 36 -57 147 -195 152 -190 3 3
-8 22 -24 43 -16 21 -33 45 -37 53 -11 23 39 -37 102 -120 31 -41 191 -248
357 -460 165 -212 314 -403 330 -425 43 -57 7 -26 -46 40 -46 58 -60 65 -36
18 26 -50 84 -115 154 -175 69 -59 105 -78 63 -33 -13 13 -35 47 -49 75 -36
70 -199 285 -451 595 -116 143 -273 337 -348 432 -75 94 -138 170 -140 168 -2
-2 1 -14 8 -27 9 -18 6 -17 -14 7 -33 39 -33 48 7 78 l33 25 250 -315 c397
-503 600 -783 724 -999 61 -106 67 -113 76 -90 4 11 -12 56 -46 124 -73 149
-101 190 -213 322 -175 204 -205 258 -216 390 l-7 85 -7 -51 c-8 -57 -33 -89
-47 -63 -5 8 -40 54 -79 102 -75 93 -87 127 -48 128 12 0 -2 7 -31 14 -82 23
-122 56 -122 103 0 10 -12 29 -26 43 -38 35 -118 138 -140 179 -10 19 -21 60
-24 90 l-5 55 -61 -82z m-81 -415 c3 -128 11 -353 17 -499 8 -186 9 -310 2
-413 -10 -148 -22 -187 -47 -166 -21 18 -67 229 -47 216 18 -11 21 95 20 570
-1 433 0 462 18 492 10 18 21 32 25 32 3 0 9 -105 12 -232z m-81 -485 c2 -199
0 -356 -4 -349 -15 26 -23 278 -19 581 5 407 18 276 23 -232z m626 40 c-16 -2
-40 -2 -55 0 -16 2 -3 4 27 4 30 0 43 -2 28 -4z"/>
<path d="M2775 2924 c63 -59 229 -148 295 -159 22 -4 4 7 -50 31 -87 36 -230
125 -264 163 -11 12 -24 21 -30 21 -6 -1 16 -26 49 -56z"/>
<path d="M4113 2800 c0 -36 2 -50 4 -32 2 17 2 47 0 65 -2 17 -4 3 -4 -33z"/>
<path d="M1550 2830 c-8 -5 -10 -10 -5 -10 6 0 17 5 25 10 8 5 11 10 5 10 -5
0 -17 -5 -25 -10z"/>
<path d="M1485 2805 c-25 -12 -26 -14 -5 -9 28 7 60 23 45 23 -5 0 -23 -6 -40
-14z"/>
<path d="M1841 2644 c0 -11 3 -14 6 -6 3 7 2 16 -1 19 -3 4 -6 -2 -5 -13z"/>
<path d="M1831 2594 c0 -11 3 -14 6 -6 3 7 2 16 -1 19 -3 4 -6 -2 -5 -13z"/>
<path d="M3080 2590 c14 -4 36 -8 50 -8 22 0 22 1 -5 8 -16 4 -39 8 -50 8 -16
0 -15 -2 5 -8z"/>
<path d="M3192 2520 c0 -19 2 -27 5 -17 2 9 2 25 0 35 -3 9 -5 1 -5 -18z"/>
<path d="M3602 2515 c0 -16 2 -22 5 -12 2 9 2 23 0 30 -3 6 -5 -1 -5 -18z"/>
<path d="M3591 2384 c0 -11 3 -14 6 -6 3 7 2 16 -1 19 -3 4 -6 -2 -5 -13z"/>
</g>
</svg>
